<?xml version="1.0" standalone="no"?>
<!DOCTYPE svg PUBLIC "-//W3C//DTD SVG 20010904//EN"
 "http://www.w3.org/TR/2001/REC-SVG-20010904/DTD/svg10.dtd">
<svg version="1.0" xmlns="http://www.w3.org/2000/svg"
 width="271.000000pt" height="68.000000pt" viewBox="0 0 271.000000 68.000000"
 preserveAspectRatio="xMidYMid meet">

<g transform="translate(0.000000,68.000000) scale(0.100000,-0.100000)"
fill="#000000" stroke="none">
<path d="M1208 658 c57 -20 112 -77 127 -133 12 -42 14 -45 14 -19 2 56 -81
147 -144 158 -29 5 -29 5 3 -6z"/>
<path d="M41 184 c-12 -15 -21 -37 -21 -50 0 -28 33 -64 57 -63 14 0 15 2 3 6
-44 16 -55 91 -18 117 12 9 17 16 11 16 -6 0 -21 -12 -32 -26z"/>
<path d="M110 206 c0 -2 7 -6 15 -10 8 -3 15 -1 15 4 0 6 -7 10 -15 10 -8 0
-15 -2 -15 -4z"/>
<path d="M214 202 c-16 -11 -34 -48 -34 -71 0 -22 32 -61 50 -61 6 0 1 9 -10
20 -28 28 -27 84 2 104 22 16 14 23 -8 8z"/>
<path d="M290 190 c28 -28 27 -84 -2 -104 -12 -9 -17 -16 -10 -16 22 0 52 40
52 70 0 29 -29 70 -50 70 -5 0 -1 -9 10 -20z"/>
<path d="M365 140 c0 -40 4 -70 10 -70 6 0 10 30 10 70 0 40 -4 70 -10 70 -6
0 -10 -30 -10 -70z"/>
<path d="M428 200 c32 -13 48 -53 34 -85 -7 -14 -22 -30 -34 -35 -14 -5 -17
-9 -8 -9 34 -2 60 29 60 69 0 40 -26 71 -60 69 -9 0 -6 -4 8 -9z"/>
<path d="M588 193 c-23 -28 -28 -51 -17 -80 11 -30 26 -43 48 -43 8 0 2 9 -13
21 -40 31 -32 96 14 112 13 5 13 6 -1 6 -9 1 -23 -7 -31 -16z"/>
<path d="M660 200 c20 -13 33 -13 25 0 -3 6 -14 10 -23 10 -15 0 -15 -2 -2
-10z"/>
<path d="M760 165 c-36 -83 -40 -95 -30 -95 5 0 10 10 12 23 2 17 11 23 35 25
28 3 33 -1 39 -22 3 -14 10 -26 15 -26 12 0 12 0 -20 77 l-30 68 -21 -50z m33
-15 c4 -15 0 -20 -15 -20 -14 0 -18 5 -14 16 3 9 6 20 6 25 0 17 17 1 23 -21z"/>
<path d="M882 138 l1 -73 6 59 6 60 24 -59 25 -60 27 60 28 60 1 -57 c0 -32 3
-58 8 -58 4 0 7 32 7 70 0 39 -4 70 -8 70 -4 0 -20 -26 -34 -57 l-25 -58 -25
58 c-14 31 -29 57 -34 57 -5 0 -8 -33 -7 -72z"/>
<path d="M1065 140 c0 -38 3 -70 8 -70 4 0 7 32 7 70 0 39 -3 70 -7 70 -5 0
-8 -31 -8 -70z"/>
<path d="M1175 140 c0 -38 3 -70 8 -70 4 0 7 32 7 70 0 39 -3 70 -7 70 -5 0
-8 -31 -8 -70z"/>
<path d="M1223 199 c14 -8 17 -18 12 -37 -5 -20 -4 -24 5 -16 18 18 8 58 -15
62 -19 3 -19 2 -2 -9z"/>
<path d="M1307 203 c-14 -14 -7 -52 12 -58 10 -3 26 -14 36 -25 15 -16 15 -22
5 -35 -8 -9 -8 -15 -2 -15 13 0 24 33 17 51 -3 8 -19 22 -35 31 -31 18 -39 43
-17 51 6 3 7 6 1 6 -6 1 -14 -2 -17 -6z"/>
<path d="M1355 200 c3 -5 8 -10 11 -10 2 0 4 5 4 10 0 6 -5 10 -11 10 -5 0 -7
-4 -4 -10z"/>
<path d="M1470 140 c0 -38 3 -70 8 -70 4 0 7 32 7 70 0 39 -3 70 -7 70 -5 0
-8 -31 -8 -70z"/>
<path d="M1540 138 l4 -73 6 57 5 58 45 -55 c25 -30 46 -50 48 -45 4 10 -96
130 -107 130 -3 0 -4 -33 -1 -72z"/>
<path d="M1705 140 c0 -38 3 -70 8 -70 4 0 7 32 7 70 0 39 -3 70 -7 70 -5 0
-8 -31 -8 -70z"/>
<path d="M1768 200 c48 -20 48 -100 0 -120 -18 -7 -19 -9 -5 -9 26 -1 57 36
57 69 0 33 -31 70 -57 69 -14 0 -13 -2 5 -9z"/>
<path d="M1860 152 c0 -57 11 -82 37 -82 8 0 5 8 -8 21 -17 17 -20 31 -17 70
1 27 0 49 -4 49 -5 0 -8 -26 -8 -58z"/>
<path d="M1952 153 c-2 -47 -6 -64 -19 -72 -10 -6 -13 -11 -7 -11 24 0 35 29
31 87 l-3 58 -2 -62z"/>
<path d="M2005 190 c-7 -23 7 -46 35 -55 24 -8 33 -34 18 -53 -11 -13 -10 -14
2 -10 8 2 16 16 18 31 3 20 -3 29 -27 41 -38 20 -46 33 -31 51 8 10 9 15 2 15
-6 0 -14 -9 -17 -20z"/>
<path d="M2055 200 c3 -5 8 -10 11 -10 2 0 4 5 4 10 0 6 -5 10 -11 10 -5 0 -7
-4 -4 -10z"/>
<path d="M2145 140 c0 -38 3 -70 8 -70 4 0 7 32 7 70 0 39 -3 70 -7 70 -5 0
-8 -31 -8 -70z"/>
<path d="M2235 140 c0 -38 3 -70 8 -70 4 0 7 32 7 70 0 39 -3 70 -7 70 -5 0
-8 -31 -8 -70z"/>
<path d="M2283 199 c14 -8 17 -18 12 -37 -5 -20 -4 -24 5 -16 18 18 8 58 -15
62 -19 3 -19 2 -2 -9z"/>
<path d="M2365 140 c0 -38 3 -70 8 -70 4 0 7 32 7 70 0 39 -3 70 -7 70 -5 0
-8 -31 -8 -70z"/>
<path d="M2430 140 c0 -38 3 -70 8 -70 4 0 7 32 7 70 0 39 -3 70 -7 70 -5 0
-8 -31 -8 -70z"/>
<path d="M2542 198 c-20 -20 -14 -38 23 -59 34 -20 46 -52 25 -62 -6 -3 -5 -4
2 -3 7 1 14 14 16 29 3 20 -3 29 -26 41 -34 18 -45 39 -29 55 6 6 9 11 6 11
-3 0 -10 -5 -17 -12z"/>
<path d="M2580 206 c0 -2 7 -7 16 -10 8 -3 12 -2 9 4 -6 10 -25 14 -25 6z"/>
<path d="M1206 128 c13 -23 47 -58 57 -58 11 0 -44 68 -56 69 -5 1 -5 -5 -1
-11z"/>
<path d="M2266 128 c13 -23 47 -58 57 -58 11 0 -44 68 -56 69 -5 1 -5 -5 -1
-11z"/>
<path d="M130 106 c0 -13 -6 -27 -12 -29 -8 -4 -7 -6 3 -6 11 -1 18 9 21 29 3
16 1 30 -4 30 -4 0 -8 -11 -8 -24z"/>
<path d="M670 106 c0 -13 -6 -27 -12 -30 -7 -3 -4 -5 7 -3 14 1 21 11 23 30 2
15 -1 27 -7 27 -6 0 -11 -11 -11 -24z"/>
<path d="M1300 80 c0 -5 5 -10 11 -10 5 0 7 5 4 10 -3 6 -8 10 -11 10 -2 0 -4
-4 -4 -10z"/>
<path d="M2000 80 c0 -6 7 -10 15 -10 8 0 15 2 15 4 0 2 -7 6 -15 10 -8 3 -15
1 -15 -4z"/>
<path d="M2537 79 c7 -7 15 -10 18 -7 3 3 -2 9 -12 12 -14 6 -15 5 -6 -5z"/>
</g>
</svg>
